<svg xmlns="http://www.w3.org/2000/svg" xmlns:xlink="http://www.w3.org/1999/xlink" width="40" zoomAndPan="magnify" viewBox="0 0 30 30.000001" height="40" preserveAspectRatio="xMidYMid meet" version="1.0"><defs><clipPath id="0a7a009576"><path d="M 0.484375 1 L 29 1 L 29 29.03125 L 0.484375 29.03125 Z M 0.484375 1 " clip-rule="nonzero"/></clipPath><clipPath id="9bbe017aaf"><path d="M 13 0 L 29.515625 0 L 29.515625 16 L 13 16 Z M 13 0 " clip-rule="nonzero"/></clipPath></defs><path fill="#fd408e" d="M 14.425781 11.015625 C 14.855469 11.015625 15.207031 10.664062 15.207031 10.230469 C 15.207031 9.796875 14.855469 9.445312 14.425781 9.445312 C 11.351562 9.445312 8.855469 11.949219 8.855469 15.03125 C 8.855469 18.109375 11.351562 20.613281 14.425781 20.613281 C 17.496094 20.613281 19.992188 18.109375 19.992188 15.03125 C 19.992188 14.597656 19.644531 14.246094 19.210938 14.246094 C 18.777344 14.246094 18.429688 14.597656 18.429688 15.03125 C 18.429688 17.242188 16.632812 19.046875 14.425781 19.046875 C 12.21875 19.046875 10.421875 17.242188 10.421875 15.03125 C 10.421875 12.816406 12.21875 11.015625 14.425781 11.015625 " fill-opacity="1" fill-rule="nonzero"/><path fill="#fd408e" d="M 14.425781 5.417969 C 9.140625 5.417969 4.839844 9.730469 4.839844 15.03125 C 4.839844 20.332031 9.140625 24.640625 14.425781 24.640625 C 19.710938 24.640625 24.007812 20.332031 24.007812 15.03125 C 24.007812 14.597656 23.660156 14.246094 23.226562 14.246094 C 22.792969 14.246094 22.445312 14.597656 22.445312 15.03125 C 22.445312 19.464844 18.847656 23.074219 14.425781 23.074219 C 10.003906 23.074219 6.40625 19.464844 6.40625 15.03125 C 6.40625 10.597656 10.003906 6.988281 14.425781 6.988281 C 14.855469 6.988281 15.207031 6.636719 15.207031 6.203125 C 15.207031 5.769531 14.855469 5.417969 14.425781 5.417969 " fill-opacity="1" fill-rule="nonzero"/><g clip-path="url(#0a7a009576)"><path fill="#fd408e" d="M 27.585938 14.246094 C 27.15625 14.246094 26.804688 14.597656 26.804688 15.03125 C 26.804688 21.875 21.25 27.445312 14.425781 27.445312 C 7.597656 27.445312 2.046875 21.875 2.046875 15.03125 C 2.046875 8.1875 7.597656 2.617188 14.425781 2.617188 C 14.855469 2.617188 15.207031 2.265625 15.207031 1.832031 C 15.207031 1.398438 14.855469 1.046875 14.425781 1.046875 C 6.734375 1.046875 0.480469 7.320312 0.480469 15.03125 C 0.480469 22.742188 6.734375 29.015625 14.425781 29.015625 C 22.113281 29.015625 28.367188 22.742188 28.367188 15.03125 C 28.367188 14.597656 28.019531 14.246094 27.585938 14.246094 " fill-opacity="1" fill-rule="nonzero"/></g><g clip-path="url(#9bbe017aaf)"><path fill="#fd408e" d="M 24.605469 8.21875 L 22.851562 7.796875 L 25.386719 5.253906 L 27.140625 5.675781 Z M 21.328125 4.933594 L 23.863281 2.390625 L 24.261719 4.058594 L 21.726562 6.601562 Z M 29.433594 5.023438 C 29.359375 4.75 29.140625 4.539062 28.863281 4.472656 L 25.792969 3.738281 L 25.0625 0.660156 C 24.996094 0.382812 24.785156 0.164062 24.511719 0.0859375 C 24.238281 0.0117188 23.945312 0.0859375 23.746094 0.285156 L 19.910156 4.132812 C 19.71875 4.324219 19.640625 4.605469 19.703125 4.871094 L 20.425781 7.902344 L 13.871094 14.476562 C 13.566406 14.78125 13.566406 15.277344 13.871094 15.585938 C 14.023438 15.738281 14.222656 15.816406 14.425781 15.816406 C 14.625 15.816406 14.824219 15.738281 14.976562 15.585938 L 21.464844 9.078125 L 24.664062 9.847656 C 24.726562 9.859375 24.789062 9.867188 24.847656 9.867188 C 25.054688 9.867188 25.253906 9.789062 25.402344 9.636719 L 29.234375 5.792969 C 29.4375 5.589844 29.511719 5.296875 29.433594 5.023438 " fill-opacity="1" fill-rule="nonzero"/></g></svg>