<svg xmlns="http://www.w3.org/2000/svg" xmlns:xlink="http://www.w3.org/1999/xlink" width="40" zoomAndPan="magnify" viewBox="0 0 30 30.000001" height="40" preserveAspectRatio="xMidYMid meet" version="1.0"><defs><clipPath id="31c885c698"><path d="M 11 13 L 29.515625 13 L 29.515625 29.03125 L 11 29.03125 Z M 11 13 " clip-rule="nonzero"/></clipPath><clipPath id="a51fa3c447"><path d="M 0.484375 7 L 19 7 L 19 24 L 0.484375 24 Z M 0.484375 7 " clip-rule="nonzero"/></clipPath></defs><path fill="#fd408e" d="M 20.65625 13.195312 C 20.484375 13.199219 20.339844 13.144531 20.210938 13.03125 C 20.074219 12.910156 20 12.757812 19.992188 12.574219 C 19.980469 12.390625 20.035156 12.230469 20.160156 12.09375 L 20.746094 11.433594 C 20.878906 11.289062 21.042969 11.214844 21.242188 11.21875 L 26.21875 11.21875 C 26.398438 11.21875 26.554688 11.152344 26.683594 11.023438 C 26.8125 10.894531 26.875 10.738281 26.875 10.558594 L 26.875 1.980469 C 26.875 1.796875 26.8125 1.640625 26.683594 1.511719 C 26.554688 1.382812 26.398438 1.320312 26.21875 1.320312 L 11.699219 1.320312 C 11.519531 1.320312 11.363281 1.382812 11.234375 1.511719 C 11.105469 1.640625 11.042969 1.796875 11.042969 1.980469 L 11.042969 6.597656 C 11.042969 6.78125 10.976562 6.9375 10.847656 7.066406 C 10.71875 7.195312 10.5625 7.257812 10.382812 7.257812 C 10.199219 7.257812 10.042969 7.195312 9.914062 7.066406 C 9.785156 6.9375 9.722656 6.78125 9.722656 6.597656 L 9.722656 1.980469 C 9.722656 1.71875 9.773438 1.464844 9.871094 1.222656 C 9.972656 0.980469 10.117188 0.765625 10.300781 0.578125 C 10.488281 0.394531 10.699219 0.25 10.945312 0.152344 C 11.1875 0.0507812 11.4375 0 11.699219 0 L 26.21875 0 C 26.480469 0 26.730469 0.0507812 26.972656 0.152344 C 27.21875 0.25 27.429688 0.394531 27.617188 0.578125 C 27.800781 0.765625 27.945312 0.980469 28.046875 1.222656 C 28.144531 1.464844 28.195312 1.71875 28.195312 1.980469 L 28.195312 10.558594 C 28.195312 10.820312 28.144531 11.070312 28.046875 11.316406 C 27.945312 11.558594 27.800781 11.769531 27.617188 11.957031 C 27.429688 12.140625 27.21875 12.285156 26.972656 12.386719 C 26.730469 12.488281 26.480469 12.535156 26.21875 12.535156 L 21.539062 12.535156 L 21.144531 12.980469 C 21.011719 13.125 20.851562 13.195312 20.65625 13.195312 Z M 20.65625 13.195312 " fill-opacity="1" fill-rule="nonzero"/><g clip-path="url(#31c885c698)"><path fill="#fd408e" d="M 20.207031 29.03125 C 20.007812 29.035156 19.84375 28.960938 19.710938 28.816406 L 17.554688 26.394531 L 13.019531 26.394531 C 12.757812 26.394531 12.503906 26.34375 12.261719 26.242188 C 12.019531 26.140625 11.804688 26 11.621094 25.8125 C 11.433594 25.628906 11.292969 25.414062 11.191406 25.171875 C 11.089844 24.929688 11.042969 24.675781 11.042969 24.414062 L 11.042969 15.835938 C 11.042969 15.574219 11.089844 15.320312 11.191406 15.078125 C 11.292969 14.835938 11.433594 14.621094 11.621094 14.4375 C 11.804688 14.25 12.019531 14.109375 12.261719 14.007812 C 12.503906 13.90625 12.757812 13.855469 13.019531 13.855469 L 27.535156 13.855469 C 27.800781 13.855469 28.050781 13.90625 28.292969 14.007812 C 28.535156 14.109375 28.75 14.25 28.9375 14.4375 C 29.121094 14.621094 29.265625 14.835938 29.367188 15.078125 C 29.464844 15.320312 29.515625 15.574219 29.515625 15.835938 L 29.515625 24.414062 C 29.515625 24.675781 29.464844 24.929688 29.367188 25.171875 C 29.265625 25.414062 29.121094 25.628906 28.9375 25.8125 C 28.75 26 28.535156 26.140625 28.292969 26.242188 C 28.050781 26.34375 27.800781 26.394531 27.535156 26.394531 L 22.859375 26.394531 L 20.695312 28.816406 C 20.5625 28.960938 20.402344 29.03125 20.207031 29.03125 Z M 13.019531 15.175781 C 12.839844 15.175781 12.683594 15.242188 12.554688 15.371094 C 12.425781 15.5 12.359375 15.652344 12.359375 15.835938 L 12.359375 24.414062 C 12.359375 24.59375 12.425781 24.75 12.554688 24.878906 C 12.683594 25.007812 12.839844 25.074219 13.019531 25.074219 L 17.84375 25.074219 C 18.042969 25.070312 18.207031 25.144531 18.339844 25.292969 L 20.207031 27.382812 L 22.066406 25.292969 C 22.199219 25.144531 22.363281 25.070312 22.5625 25.074219 L 27.535156 25.074219 C 27.71875 25.074219 27.875 25.007812 28.003906 24.878906 C 28.132812 24.75 28.195312 24.59375 28.195312 24.414062 L 28.195312 15.835938 C 28.195312 15.652344 28.132812 15.5 28.003906 15.371094 C 27.875 15.242188 27.71875 15.175781 27.535156 15.175781 Z M 13.019531 15.175781 " fill-opacity="1" fill-rule="nonzero"/></g><path fill="#fd408e" d="M 20.277344 25.074219 C 19.976562 25.074219 19.675781 25.042969 19.378906 24.984375 C 19.078125 24.925781 18.792969 24.835938 18.511719 24.722656 C 18.230469 24.605469 17.964844 24.464844 17.710938 24.292969 C 17.460938 24.125 17.226562 23.933594 17.011719 23.71875 C 16.796875 23.507812 16.605469 23.273438 16.4375 23.019531 C 16.269531 22.769531 16.128906 22.503906 16.011719 22.222656 C 15.894531 21.941406 15.808594 21.652344 15.75 21.355469 C 15.6875 21.058594 15.660156 20.757812 15.660156 20.453125 C 15.660156 20.152344 15.6875 19.851562 15.75 19.554688 C 15.808594 19.257812 15.894531 18.96875 16.011719 18.6875 C 16.128906 18.40625 16.269531 18.140625 16.4375 17.886719 C 16.605469 17.636719 16.796875 17.402344 17.011719 17.1875 C 17.226562 16.972656 17.460938 16.78125 17.710938 16.613281 C 17.964844 16.445312 18.230469 16.304688 18.511719 16.1875 C 18.792969 16.070312 19.078125 15.984375 19.378906 15.925781 C 19.675781 15.867188 19.976562 15.835938 20.277344 15.835938 C 20.582031 15.835938 20.882812 15.867188 21.179688 15.925781 C 21.476562 15.984375 21.765625 16.070312 22.046875 16.1875 C 22.328125 16.304688 22.59375 16.445312 22.84375 16.613281 C 23.097656 16.78125 23.332031 16.972656 23.542969 17.1875 C 23.757812 17.402344 23.949219 17.636719 24.117188 17.886719 C 24.289062 18.140625 24.429688 18.40625 24.546875 18.6875 C 24.660156 18.96875 24.75 19.257812 24.808594 19.554688 C 24.867188 19.851562 24.898438 20.152344 24.898438 20.453125 C 24.898438 20.757812 24.867188 21.058594 24.808594 21.355469 C 24.75 21.652344 24.660156 21.941406 24.546875 22.222656 C 24.429688 22.503906 24.289062 22.769531 24.117188 23.019531 C 23.949219 23.273438 23.757812 23.507812 23.542969 23.71875 C 23.332031 23.933594 23.097656 24.125 22.84375 24.292969 C 22.59375 24.464844 22.328125 24.605469 22.046875 24.722656 C 21.765625 24.835938 21.476562 24.925781 21.179688 24.984375 C 20.882812 25.042969 20.582031 25.074219 20.277344 25.074219 Z M 20.277344 17.15625 C 19.839844 17.15625 19.421875 17.238281 19.015625 17.40625 C 18.613281 17.574219 18.253906 17.8125 17.945312 18.121094 C 17.636719 18.429688 17.398438 18.789062 17.230469 19.191406 C 17.0625 19.597656 16.980469 20.015625 16.980469 20.453125 C 16.980469 20.890625 17.0625 21.3125 17.230469 21.71875 C 17.398438 22.121094 17.636719 22.476562 17.945312 22.789062 C 18.253906 23.097656 18.613281 23.335938 19.015625 23.503906 C 19.421875 23.671875 19.839844 23.753906 20.277344 23.753906 C 20.714844 23.753906 21.136719 23.671875 21.542969 23.503906 C 21.945312 23.335938 22.300781 23.097656 22.613281 22.789062 C 22.921875 22.476562 23.160156 22.121094 23.328125 21.71875 C 23.492188 21.3125 23.578125 20.890625 23.578125 20.453125 C 23.578125 20.015625 23.492188 19.597656 23.328125 19.191406 C 23.160156 18.789062 22.921875 18.429688 22.613281 18.121094 C 22.300781 17.8125 21.945312 17.574219 21.542969 17.40625 C 21.136719 17.238281 20.714844 17.15625 20.277344 17.15625 Z M 20.277344 17.15625 " fill-opacity="1" fill-rule="nonzero"/><path fill="#fd408e" d="M 20.277344 22.765625 C 20.015625 22.765625 19.761719 22.714844 19.519531 22.613281 C 19.277344 22.511719 19.066406 22.371094 18.878906 22.183594 C 18.691406 22 18.550781 21.785156 18.449219 21.542969 C 18.347656 21.300781 18.300781 21.046875 18.300781 20.785156 C 18.300781 20.601562 18.363281 20.445312 18.492188 20.316406 C 18.621094 20.1875 18.777344 20.125 18.957031 20.125 C 19.140625 20.125 19.296875 20.1875 19.425781 20.316406 C 19.554688 20.445312 19.617188 20.601562 19.617188 20.785156 C 19.617188 20.964844 19.683594 21.121094 19.8125 21.25 C 19.941406 21.378906 20.097656 21.445312 20.277344 21.445312 C 20.460938 21.445312 20.617188 21.378906 20.746094 21.25 C 20.875 21.121094 20.9375 20.964844 20.9375 20.785156 C 20.9375 20.601562 21.003906 20.445312 21.132812 20.316406 C 21.261719 20.1875 21.417969 20.125 21.597656 20.125 C 21.78125 20.125 21.9375 20.1875 22.066406 20.316406 C 22.195312 20.445312 22.257812 20.601562 22.257812 20.785156 C 22.257812 21.046875 22.207031 21.300781 22.105469 21.542969 C 22.007812 21.785156 21.863281 22 21.679688 22.183594 C 21.492188 22.371094 21.277344 22.511719 21.035156 22.613281 C 20.792969 22.714844 20.542969 22.765625 20.277344 22.765625 Z M 20.277344 22.765625 " fill-opacity="1" fill-rule="nonzero"/><g clip-path="url(#a51fa3c447)"><path fill="#fd408e" d="M 9.648438 23.09375 C 9.453125 23.09375 9.292969 23.019531 9.160156 22.875 L 6.988281 20.453125 L 2.464844 20.453125 C 2.199219 20.453125 1.949219 20.40625 1.707031 20.304688 C 1.464844 20.203125 1.25 20.058594 1.0625 19.875 C 0.878906 19.6875 0.734375 19.476562 0.632812 19.234375 C 0.535156 18.988281 0.484375 18.738281 0.484375 18.476562 L 0.484375 9.898438 C 0.484375 9.636719 0.535156 9.382812 0.632812 9.140625 C 0.734375 8.898438 0.878906 8.683594 1.0625 8.496094 C 1.25 8.3125 1.464844 8.167969 1.707031 8.070312 C 1.949219 7.96875 2.199219 7.917969 2.464844 7.917969 L 16.980469 7.917969 C 17.242188 7.917969 17.496094 7.96875 17.738281 8.070312 C 17.980469 8.167969 18.195312 8.3125 18.378906 8.496094 C 18.566406 8.683594 18.707031 8.898438 18.808594 9.140625 C 18.910156 9.382812 18.957031 9.636719 18.957031 9.898438 L 18.957031 12.535156 C 18.957031 12.71875 18.894531 12.875 18.765625 13.003906 C 18.636719 13.132812 18.480469 13.195312 18.300781 13.195312 C 18.117188 13.195312 17.960938 13.132812 17.832031 13.003906 C 17.703125 12.875 17.640625 12.71875 17.640625 12.535156 L 17.640625 9.898438 C 17.640625 9.714844 17.574219 9.558594 17.445312 9.429688 C 17.316406 9.300781 17.160156 9.238281 16.980469 9.238281 L 2.464844 9.238281 C 2.28125 9.238281 2.125 9.300781 1.996094 9.429688 C 1.867188 9.558594 1.804688 9.714844 1.804688 9.898438 L 1.804688 18.476562 C 1.804688 18.65625 1.867188 18.8125 1.996094 18.941406 C 2.125 19.070312 2.28125 19.136719 2.464844 19.136719 L 7.285156 19.136719 C 7.484375 19.132812 7.648438 19.207031 7.78125 19.351562 L 10.144531 21.992188 C 10.265625 22.128906 10.324219 22.289062 10.3125 22.472656 C 10.300781 22.65625 10.230469 22.808594 10.089844 22.929688 C 9.964844 23.039062 9.816406 23.09375 9.648438 23.09375 Z M 9.648438 23.09375 " fill-opacity="1" fill-rule="nonzero"/></g><path fill="#fd408e" d="M 22.257812 3.957031 L 13.679688 3.957031 C 13.5 3.957031 13.34375 3.894531 13.214844 3.765625 C 13.085938 3.636719 13.019531 3.480469 13.019531 3.300781 C 13.019531 3.117188 13.085938 2.960938 13.214844 2.832031 C 13.34375 2.703125 13.5 2.640625 13.679688 2.640625 L 22.257812 2.640625 C 22.441406 2.640625 22.597656 2.703125 22.726562 2.832031 C 22.851562 2.960938 22.917969 3.117188 22.917969 3.300781 C 22.917969 3.480469 22.851562 3.636719 22.726562 3.765625 C 22.597656 3.894531 22.441406 3.957031 22.257812 3.957031 Z M 22.257812 3.957031 " fill-opacity="1" fill-rule="nonzero"/><path fill="#fd408e" d="M 18.957031 6.597656 L 13.679688 6.597656 C 13.5 6.597656 13.34375 6.535156 13.214844 6.40625 C 13.085938 6.277344 13.019531 6.121094 13.019531 5.9375 C 13.019531 5.757812 13.085938 5.601562 13.214844 5.472656 C 13.34375 5.34375 13.5 5.277344 13.679688 5.277344 L 18.957031 5.277344 C 19.140625 5.277344 19.296875 5.34375 19.425781 5.472656 C 19.554688 5.601562 19.617188 5.757812 19.617188 5.9375 C 19.617188 6.121094 19.554688 6.277344 19.425781 6.40625 C 19.296875 6.535156 19.140625 6.597656 18.957031 6.597656 Z M 18.957031 6.597656 " fill-opacity="1" fill-rule="nonzero"/><path fill="#fd408e" d="M 9.722656 18.921875 C 9.539062 18.925781 9.382812 18.859375 9.253906 18.730469 L 6.480469 15.96875 C 4.738281 14.226562 4.910156 12.46875 5.820312 11.578125 C 6.730469 10.6875 8.136719 10.558594 9.722656 11.835938 C 10.101562 11.492188 10.535156 11.242188 11.027344 11.089844 C 11.515625 10.9375 12.015625 10.894531 12.527344 10.964844 C 12.886719 11.039062 13.207031 11.191406 13.492188 11.425781 C 13.773438 11.65625 13.984375 11.945312 14.121094 12.285156 C 14.191406 12.457031 14.1875 12.625 14.117188 12.792969 C 14.042969 12.960938 13.921875 13.078125 13.753906 13.144531 C 13.582031 13.210938 13.414062 13.210938 13.246094 13.136719 C 13.078125 13.066406 12.960938 12.945312 12.894531 12.773438 C 12.773438 12.472656 12.554688 12.300781 12.234375 12.253906 C 11.839844 12.238281 11.460938 12.316406 11.097656 12.484375 C 10.738281 12.648438 10.433594 12.886719 10.183594 13.195312 C 10.054688 13.328125 9.898438 13.390625 9.714844 13.390625 C 9.53125 13.390625 9.375 13.328125 9.246094 13.195312 C 8.195312 12.148438 7.1875 12.0625 6.730469 12.535156 C 6.277344 13.011719 6.363281 14 7.390625 15.050781 L 10.183594 17.816406 C 10.3125 17.945312 10.378906 18.101562 10.378906 18.285156 C 10.378906 18.46875 10.3125 18.625 10.183594 18.753906 C 10.050781 18.871094 9.898438 18.929688 9.722656 18.921875 Z M 9.722656 18.921875 " fill-opacity="1" fill-rule="nonzero"/></svg>