<svg xmlns="http://www.w3.org/2000/svg" xmlns:xlink="http://www.w3.org/1999/xlink" width="40" zoomAndPan="magnify" viewBox="0 0 30 30.000001" height="40" preserveAspectRatio="xMidYMid meet" version="1.0"><defs><clipPath id="0c397e5c44"><path d="M 2 4 L 29.515625 4 L 29.515625 24 L 2 24 Z M 2 4 " clip-rule="nonzero"/></clipPath><clipPath id="cd0c15349f"><path d="M 2 20 L 29.515625 20 L 29.515625 21 L 2 21 Z M 2 20 " clip-rule="nonzero"/></clipPath><clipPath id="1efa7b813d"><path d="M 10 23 L 21 23 L 21 28.035156 L 10 28.035156 Z M 10 23 " clip-rule="nonzero"/></clipPath><clipPath id="5dc37585e8"><path d="M 0.484375 1.179688 L 11 1.179688 L 11 11 L 0.484375 11 Z M 0.484375 1.179688 " clip-rule="nonzero"/></clipPath></defs><g clip-path="url(#0c397e5c44)"><path fill="#fd408e" d="M 26.085938 23.683594 L 5.785156 23.683594 C 3.894531 23.683594 2.355469 22.136719 2.355469 20.234375 L 2.355469 9.640625 C 2.355469 9.457031 2.503906 9.308594 2.6875 9.308594 C 2.867188 9.308594 3.015625 9.457031 3.015625 9.640625 L 3.015625 20.234375 C 3.015625 21.769531 4.257812 23.019531 5.785156 23.019531 L 26.085938 23.019531 C 27.613281 23.019531 28.855469 21.769531 28.855469 20.234375 L 28.855469 8.164062 C 28.855469 6.628906 27.613281 5.375 26.085938 5.375 L 9.597656 5.375 C 9.417969 5.375 9.269531 5.226562 9.269531 5.046875 C 9.269531 4.863281 9.417969 4.714844 9.597656 4.714844 L 26.085938 4.714844 C 27.976562 4.714844 29.511719 6.261719 29.511719 8.164062 L 29.511719 20.234375 C 29.511719 22.136719 27.976562 23.683594 26.085938 23.683594 Z M 26.085938 23.683594 " fill-opacity="1" fill-rule="nonzero"/></g><g clip-path="url(#cd0c15349f)"><path fill="#fd408e" d="M 29.167969 20.890625 L 2.703125 20.890625 C 2.519531 20.890625 2.375 20.742188 2.375 20.5625 C 2.375 20.378906 2.519531 20.230469 2.703125 20.230469 L 29.167969 20.230469 C 29.347656 20.230469 29.496094 20.378906 29.496094 20.5625 C 29.496094 20.742188 29.347656 20.890625 29.167969 20.890625 Z M 29.167969 20.890625 " fill-opacity="1" fill-rule="nonzero"/></g><g clip-path="url(#1efa7b813d)"><path fill="#fd408e" d="M 20.664062 28.035156 L 11.207031 28.035156 C 11.085938 28.035156 10.972656 27.964844 10.914062 27.859375 C 10.859375 27.75 10.867188 27.617188 10.933594 27.515625 L 13.871094 23.167969 C 13.972656 23.015625 14.175781 22.976562 14.324219 23.078125 C 14.476562 23.179688 14.515625 23.386719 14.414062 23.539062 L 11.824219 27.371094 L 20.042969 27.371094 L 17.457031 23.539062 C 17.355469 23.386719 17.394531 23.183594 17.546875 23.078125 C 17.695312 22.976562 17.898438 23.015625 18 23.167969 L 20.9375 27.515625 C 21.003906 27.617188 21.011719 27.75 20.957031 27.859375 C 20.898438 27.964844 20.785156 28.035156 20.664062 28.035156 Z M 20.664062 28.035156 " fill-opacity="1" fill-rule="nonzero"/></g><path fill="#fd408e" d="M 8.753906 20.890625 C 8.574219 20.890625 8.425781 20.742188 8.425781 20.5625 L 8.425781 12.722656 C 8.425781 12.613281 8.332031 12.519531 8.222656 12.519531 L 5.867188 12.519531 C 5.757812 12.519531 5.664062 12.613281 5.664062 12.722656 L 5.664062 20.5625 C 5.664062 20.742188 5.515625 20.890625 5.335938 20.890625 C 5.152344 20.890625 5.007812 20.742188 5.007812 20.5625 L 5.007812 12.722656 C 5.007812 12.246094 5.390625 11.855469 5.867188 11.855469 L 8.222656 11.855469 C 8.695312 11.855469 9.082031 12.246094 9.082031 12.722656 L 9.082031 20.5625 C 9.082031 20.742188 8.9375 20.890625 8.753906 20.890625 Z M 8.753906 20.890625 " fill-opacity="1" fill-rule="nonzero"/><path fill="#fd408e" d="M 14.679688 20.890625 C 14.5 20.890625 14.351562 20.742188 14.351562 20.5625 L 14.351562 10.835938 C 14.351562 10.722656 14.257812 10.628906 14.148438 10.628906 L 11.792969 10.628906 C 11.683594 10.628906 11.589844 10.722656 11.589844 10.835938 L 11.589844 20.5625 C 11.589844 20.742188 11.441406 20.890625 11.261719 20.890625 C 11.082031 20.890625 10.933594 20.742188 10.933594 20.5625 L 10.933594 10.835938 C 10.933594 10.359375 11.320312 9.96875 11.792969 9.96875 L 14.148438 9.96875 C 14.625 9.96875 15.011719 10.359375 15.011719 10.835938 L 15.011719 20.5625 C 15.011719 20.742188 14.863281 20.890625 14.679688 20.890625 Z M 14.679688 20.890625 " fill-opacity="1" fill-rule="nonzero"/><path fill="#fd408e" d="M 20.609375 20.890625 C 20.425781 20.890625 20.28125 20.742188 20.28125 20.5625 L 20.28125 9.070312 C 20.28125 8.960938 20.1875 8.867188 20.074219 8.867188 L 17.71875 8.867188 C 17.609375 8.867188 17.515625 8.960938 17.515625 9.070312 L 17.515625 20.5625 C 17.515625 20.742188 17.371094 20.890625 17.1875 20.890625 C 17.007812 20.890625 16.859375 20.742188 16.859375 20.5625 L 16.859375 9.070312 C 16.859375 8.59375 17.246094 8.203125 17.71875 8.203125 L 20.074219 8.203125 C 20.550781 8.203125 20.9375 8.59375 20.9375 9.070312 L 20.9375 20.5625 C 20.9375 20.742188 20.789062 20.890625 20.609375 20.890625 Z M 20.609375 20.890625 " fill-opacity="1" fill-rule="nonzero"/><path fill="#fd408e" d="M 26.535156 20.890625 C 26.355469 20.890625 26.207031 20.742188 26.207031 20.5625 L 26.207031 12.722656 C 26.207031 12.613281 26.113281 12.519531 26.003906 12.519531 L 23.648438 12.519531 C 23.539062 12.519531 23.445312 12.613281 23.445312 12.722656 L 23.445312 20.5625 C 23.445312 20.742188 23.296875 20.890625 23.117188 20.890625 C 22.933594 20.890625 22.789062 20.742188 22.789062 20.5625 L 22.789062 12.722656 C 22.789062 12.246094 23.171875 11.855469 23.648438 11.855469 L 26.003906 11.855469 C 26.476562 11.855469 26.863281 12.246094 26.863281 12.722656 L 26.863281 20.5625 C 26.863281 20.742188 26.714844 20.890625 26.535156 20.890625 Z M 26.535156 20.890625 " fill-opacity="1" fill-rule="nonzero"/><g clip-path="url(#5dc37585e8)"><path fill="#fd408e" d="M 5.253906 10.792969 C 2.621094 10.792969 0.480469 8.640625 0.480469 5.988281 C 0.480469 3.339844 2.621094 1.183594 5.253906 1.183594 C 7.886719 1.183594 10.027344 3.339844 10.027344 5.988281 C 10.027344 8.640625 7.886719 10.792969 5.253906 10.792969 Z M 5.253906 1.847656 C 2.984375 1.847656 1.136719 3.707031 1.136719 5.988281 C 1.136719 8.273438 2.984375 10.132812 5.253906 10.132812 C 7.523438 10.132812 9.367188 8.273438 9.367188 5.988281 C 9.367188 3.707031 7.523438 1.847656 5.253906 1.847656 Z M 5.253906 1.847656 " fill-opacity="1" fill-rule="nonzero"/></g><path fill="#fd408e" d="M 5.253906 8.34375 C 4.519531 8.34375 3.921875 7.742188 3.921875 7 C 3.921875 6.820312 4.066406 6.671875 4.25 6.671875 C 4.429688 6.671875 4.578125 6.820312 4.578125 7 C 4.578125 7.375 4.878906 7.683594 5.253906 7.683594 C 5.625 7.683594 5.929688 7.375 5.929688 7 C 5.929688 6.625 5.625 6.320312 5.253906 6.320312 C 4.519531 6.320312 3.921875 5.71875 3.921875 4.976562 C 3.921875 4.238281 4.519531 3.636719 5.253906 3.636719 C 5.988281 3.636719 6.585938 4.238281 6.585938 4.976562 C 6.585938 5.160156 6.441406 5.308594 6.257812 5.308594 C 6.078125 5.308594 5.929688 5.160156 5.929688 4.976562 C 5.929688 4.601562 5.625 4.296875 5.253906 4.296875 C 4.878906 4.296875 4.578125 4.601562 4.578125 4.976562 C 4.578125 5.351562 4.878906 5.660156 5.253906 5.660156 C 5.988281 5.660156 6.585938 6.261719 6.585938 7 C 6.585938 7.742188 5.988281 8.34375 5.253906 8.34375 Z M 5.253906 8.34375 " fill-opacity="1" fill-rule="nonzero"/><path fill="#fd408e" d="M 5.253906 4.296875 C 5.074219 4.296875 4.925781 4.148438 4.925781 3.964844 L 4.925781 3.238281 C 4.925781 3.058594 5.074219 2.910156 5.253906 2.910156 C 5.433594 2.910156 5.582031 3.058594 5.582031 3.238281 L 5.582031 3.964844 C 5.582031 4.148438 5.433594 4.296875 5.253906 4.296875 Z M 5.253906 4.296875 " fill-opacity="1" fill-rule="nonzero"/><path fill="#fd408e" d="M 5.253906 9.070312 C 5.074219 9.070312 4.925781 8.921875 4.925781 8.738281 L 4.925781 8.011719 C 4.925781 7.832031 5.074219 7.683594 5.253906 7.683594 C 5.433594 7.683594 5.582031 7.832031 5.582031 8.011719 L 5.582031 8.738281 C 5.582031 8.921875 5.433594 9.070312 5.253906 9.070312 Z M 5.253906 9.070312 " fill-opacity="1" fill-rule="nonzero"/></svg>