<svg xmlns="http://www.w3.org/2000/svg" xmlns:xlink="http://www.w3.org/1999/xlink" width="40" zoomAndPan="magnify" viewBox="0 0 30 30.000001" height="40" preserveAspectRatio="xMidYMid meet" version="1.0"><defs><clipPath id="ed424dd3c2"><path d="M 0.484375 0 L 29 0 L 29 29 L 0.484375 29 Z M 0.484375 0 " clip-rule="nonzero"/></clipPath></defs><g clip-path="url(#ed424dd3c2)"><path fill="#fd408e" d="M 13.433594 24.46875 C 13.203125 24.703125 12.824219 24.703125 12.597656 24.476562 L 5.109375 16.992188 C 4.882812 16.761719 4.886719 16.386719 5.121094 16.15625 L 16.816406 4.457031 C 17.433594 3.84375 18.132812 3.332031 18.886719 2.910156 L 26.6875 10.710938 C 26.269531 11.46875 25.75 12.15625 25.132812 12.773438 Z M 22.199219 23.601562 C 22.226562 23.785156 22.160156 23.972656 22.035156 24.101562 L 18.289062 27.847656 C 18.0625 28.074219 17.691406 28.074219 17.460938 27.847656 L 14.429688 24.8125 L 21.378906 17.863281 Z M 10.539062 25.820312 C 10.457031 25.992188 10.296875 26.109375 10.109375 26.140625 C 9.925781 26.171875 9.738281 26.109375 9.601562 25.976562 L 3.613281 19.988281 C 3.476562 19.851562 3.417969 19.664062 3.449219 19.476562 C 3.480469 19.289062 3.597656 19.132812 3.765625 19.046875 L 5.140625 18.359375 L 11.230469 24.445312 Z M 5.15625 26.980469 C 5.136719 26.757812 5.054688 26.554688 4.90625 26.394531 C 4.65625 26.125 4.277344 26.03125 3.859375 26.128906 C 3.398438 26.238281 2.945312 26.4375 2.523438 26.71875 C 2.5625 25.484375 2.800781 23.265625 3.957031 21.882812 C 3.992188 21.84375 4.027344 21.808594 4.0625 21.769531 L 7.878906 25.585938 C 7.058594 26.410156 5.902344 26.800781 5.15625 26.980469 Z M 1.742188 11.296875 L 5.484375 7.554688 C 5.613281 7.425781 5.804688 7.363281 5.980469 7.390625 L 11.726562 8.210938 L 4.777344 15.164062 L 1.742188 12.125 C 1.511719 11.898438 1.511719 11.527344 1.742188 11.296875 Z M 27.328125 1.773438 C 27.578125 1.816406 27.769531 2.007812 27.808594 2.261719 C 28.28125 5.148438 28.039062 7.699219 27.125 9.8125 L 19.78125 2.46875 C 21.1875 1.859375 22.78125 1.542969 24.546875 1.542969 C 25.433594 1.542969 26.363281 1.617188 27.328125 1.773438 Z M 28.746094 2.109375 C 28.636719 1.460938 28.128906 0.949219 27.480469 0.84375 C 22.761719 0.078125 18.84375 1.097656 16.148438 3.789062 L 12.566406 7.375 L 6.113281 6.453125 C 5.636719 6.386719 5.152344 6.550781 4.816406 6.886719 L 1.074219 10.628906 C 0.476562 11.226562 0.476562 12.199219 1.074219 12.792969 L 4.167969 15.886719 C 4.058594 16.097656 3.996094 16.328125 3.996094 16.570312 C 3.992188 16.980469 4.148438 17.363281 4.433594 17.652344 L 3.34375 18.199219 C 2.894531 18.425781 2.59375 18.835938 2.515625 19.324219 C 2.4375 19.816406 2.589844 20.300781 2.945312 20.652344 L 3.394531 21.105469 C 3.339844 21.160156 3.285156 21.214844 3.230469 21.277344 C 1.652344 23.164062 1.546875 26.1875 1.578125 27.386719 C 1.589844 27.898438 2.214844 28.203125 2.605469 27.847656 C 3.050781 27.449219 3.5625 27.171875 4.078125 27.046875 C 4.164062 27.027344 4.21875 27.089844 4.1875 27.191406 C 4.117188 27.402344 4.164062 27.636719 4.308594 27.804688 C 4.445312 27.960938 4.679688 28.046875 4.882812 28.003906 C 5.585938 27.878906 7.335938 27.460938 8.546875 26.253906 L 8.933594 26.644531 C 9.226562 26.933594 9.609375 27.09375 10.011719 27.09375 C 10.09375 27.09375 10.179688 27.085938 10.261719 27.070312 C 10.753906 26.992188 11.164062 26.691406 11.386719 26.246094 L 11.933594 25.148438 C 12.230469 25.441406 12.621094 25.589844 13.011719 25.589844 C 13.25 25.589844 13.484375 25.53125 13.699219 25.421875 L 16.792969 28.515625 C 17.082031 28.800781 17.46875 28.960938 17.875 28.960938 C 18.285156 28.960938 18.671875 28.800781 18.960938 28.515625 L 22.703125 24.769531 C 23.039062 24.433594 23.203125 23.949219 23.136719 23.472656 L 22.214844 17.027344 L 25.800781 13.441406 C 28.492188 10.746094 29.511719 6.832031 28.746094 2.109375 " fill-opacity="1" fill-rule="nonzero"/></g><path fill="#fd408e" d="M 20.914062 13.996094 C 20.910156 13.996094 20.910156 13.996094 20.910156 13.996094 C 20.691406 14.21875 20.308594 14.222656 20.085938 13.996094 L 15.589844 9.507812 C 15.359375 9.277344 15.359375 8.90625 15.589844 8.675781 C 15.699219 8.566406 15.851562 8.503906 16.007812 8.503906 C 16.160156 8.503906 16.308594 8.566406 16.417969 8.675781 L 20.914062 13.171875 C 21.140625 13.398438 21.140625 13.769531 20.914062 13.996094 Z M 17.542969 17.367188 L 16.792969 18.113281 C 16.792969 18.113281 16.789062 18.113281 16.78125 18.113281 C 16.761719 18.113281 16.714844 18.113281 16.714844 18.113281 L 15.925781 17.328125 L 16.753906 16.496094 L 17.542969 17.285156 C 17.566406 17.304688 17.566406 17.34375 17.542969 17.367188 Z M 12.554688 14.707031 L 14.136719 13.128906 L 16.457031 15.453125 L 14.882812 17.03125 Z M 13.011719 18.15625 L 11.433594 16.578125 L 12.261719 15.746094 L 13.839844 17.328125 Z M 17.234375 14.894531 L 14.695312 12.351562 L 15.414062 10.671875 L 18.921875 14.171875 Z M 17.089844 8.007812 C 16.503906 7.425781 15.5 7.429688 14.917969 8.007812 C 14.40625 8.527344 14.335938 9.316406 14.710938 9.910156 L 13.734375 12.191406 L 11.890625 14.039062 C 11.625 14.300781 11.550781 14.679688 11.664062 15.007812 L 10.765625 15.910156 C 10.394531 16.277344 10.394531 16.878906 10.765625 17.246094 L 12.34375 18.824219 C 12.527344 19.007812 12.769531 19.101562 13.011719 19.101562 C 13.253906 19.101562 13.496094 19.007812 13.679688 18.824219 L 14.578125 17.921875 C 14.679688 17.957031 14.78125 17.976562 14.882812 17.976562 C 14.984375 17.976562 15.089844 17.957031 15.183594 17.921875 L 16.042969 18.78125 C 16.234375 18.972656 16.484375 19.074219 16.753906 19.074219 C 17.023438 19.074219 17.273438 18.972656 17.460938 18.78125 L 18.210938 18.035156 C 18.601562 17.644531 18.601562 17.007812 18.210938 16.617188 L 17.433594 15.839844 L 19.679688 14.875 C 19.921875 15.027344 20.203125 15.117188 20.496094 15.117188 C 20.90625 15.117188 21.292969 14.957031 21.582031 14.664062 C 21.871094 14.375 22.03125 13.992188 22.03125 13.582031 C 22.03125 13.175781 21.871094 12.789062 21.582031 12.503906 L 17.089844 8.007812 " fill-opacity="1" fill-rule="nonzero"/></svg>