<svg xmlns="http://www.w3.org/2000/svg" xmlns:xlink="http://www.w3.org/1999/xlink" width="40" zoomAndPan="magnify" viewBox="0 0 30 30.000001" height="40" preserveAspectRatio="xMidYMid meet" version="1.0"><defs><clipPath id="772461422e"><path d="M 2.046875 13 L 5 13 L 5 15 L 2.046875 15 Z M 2.046875 13 " clip-rule="nonzero"/></clipPath><clipPath id="287a878274"><path d="M 25 13 L 28.175781 13 L 28.175781 15 L 25 15 Z M 25 13 " clip-rule="nonzero"/></clipPath><clipPath id="8659093ac5"><path d="M 6 5 L 24 5 L 24 29.03125 L 6 29.03125 Z M 6 5 " clip-rule="nonzero"/></clipPath></defs><g clip-path="url(#772461422e)"><path fill="#fd408e" d="M 4.320312 13.691406 L 2.433594 13.691406 C 2.21875 13.691406 2.046875 13.863281 2.046875 14.078125 C 2.046875 14.289062 2.21875 14.464844 2.433594 14.464844 L 4.320312 14.464844 C 4.53125 14.464844 4.703125 14.289062 4.703125 14.078125 C 4.703125 13.863281 4.53125 13.691406 4.320312 13.691406 Z M 4.320312 13.691406 " fill-opacity="1" fill-rule="nonzero"/></g><g clip-path="url(#287a878274)"><path fill="#fd408e" d="M 27.789062 13.691406 L 25.90625 13.691406 C 25.691406 13.691406 25.519531 13.863281 25.519531 14.078125 C 25.519531 14.289062 25.691406 14.464844 25.90625 14.464844 L 27.789062 14.464844 C 28.003906 14.464844 28.175781 14.289062 28.175781 14.078125 C 28.175781 13.863281 28.003906 13.691406 27.789062 13.691406 Z M 27.789062 13.691406 " fill-opacity="1" fill-rule="nonzero"/></g><path fill="#fd408e" d="M 7.207031 21.441406 L 5.875 22.777344 C 5.722656 22.929688 5.722656 23.171875 5.875 23.324219 C 5.949219 23.398438 6.046875 23.4375 6.148438 23.4375 C 6.246094 23.4375 6.34375 23.398438 6.421875 23.324219 L 7.753906 21.988281 C 7.902344 21.839844 7.902344 21.59375 7.753906 21.441406 C 7.601562 21.292969 7.359375 21.292969 7.207031 21.441406 Z M 7.207031 21.441406 " fill-opacity="1" fill-rule="nonzero"/><path fill="#fd408e" d="M 23.804688 4.828125 L 22.472656 6.164062 C 22.320312 6.316406 22.320312 6.558594 22.472656 6.710938 C 22.546875 6.785156 22.644531 6.824219 22.746094 6.824219 C 22.84375 6.824219 22.941406 6.785156 23.019531 6.710938 L 24.351562 5.375 C 24.5 5.226562 24.5 4.980469 24.351562 4.828125 C 24.199219 4.679688 23.957031 4.679688 23.804688 4.828125 Z M 23.804688 4.828125 " fill-opacity="1" fill-rule="nonzero"/><path fill="#fd408e" d="M 15.113281 3.660156 C 15.324219 3.660156 15.5 3.484375 15.5 3.273438 L 15.5 1.386719 C 15.5 1.171875 15.324219 1 15.113281 1 C 14.898438 1 14.726562 1.171875 14.726562 1.386719 L 14.726562 3.273438 C 14.726562 3.484375 14.898438 3.660156 15.113281 3.660156 Z M 15.113281 3.660156 " fill-opacity="1" fill-rule="nonzero"/><path fill="#fd408e" d="M 23.019531 21.441406 C 22.867188 21.292969 22.621094 21.292969 22.472656 21.441406 C 22.320312 21.59375 22.320312 21.839844 22.472656 21.988281 L 23.804688 23.324219 C 23.878906 23.398438 23.980469 23.4375 24.078125 23.4375 C 24.175781 23.4375 24.273438 23.398438 24.351562 23.324219 C 24.5 23.171875 24.5 22.929688 24.351562 22.777344 Z M 23.019531 21.441406 " fill-opacity="1" fill-rule="nonzero"/><path fill="#fd408e" d="M 7.207031 6.710938 C 7.28125 6.785156 7.382812 6.824219 7.480469 6.824219 C 7.578125 6.824219 7.675781 6.785156 7.753906 6.710938 C 7.902344 6.558594 7.902344 6.316406 7.753906 6.164062 L 6.421875 4.828125 C 6.269531 4.679688 6.023438 4.679688 5.875 4.828125 C 5.722656 4.980469 5.722656 5.226562 5.875 5.375 Z M 7.207031 6.710938 " fill-opacity="1" fill-rule="nonzero"/><g clip-path="url(#8659093ac5)"><path fill="#fd408e" d="M 19.941406 20.257812 C 22.027344 18.722656 23.277344 16.261719 23.277344 13.671875 C 23.277344 8.992188 19.328125 5.226562 14.59375 5.515625 C 10.363281 5.777344 7.003906 9.3125 6.949219 13.5625 C 6.917969 16.164062 8.136719 18.648438 10.21875 20.210938 C 10.660156 20.542969 10.914062 21.03125 10.914062 21.550781 L 10.914062 23.640625 L 10.789062 23.664062 C 10.496094 23.714844 10.296875 23.992188 10.347656 24.289062 C 10.394531 24.550781 10.621094 24.738281 10.878906 24.738281 C 10.890625 24.738281 10.90625 24.734375 10.917969 24.734375 C 10.917969 25.074219 10.96875 25.398438 11.054688 25.710938 L 11.039062 25.714844 C 10.742188 25.765625 10.546875 26.046875 10.597656 26.339844 C 10.640625 26.605469 10.871094 26.789062 11.128906 26.789062 C 11.160156 26.789062 11.191406 26.789062 11.222656 26.78125 L 11.503906 26.734375 C 12.070312 27.636719 12.996094 28.289062 14.085938 28.480469 C 14.203125 28.941406 14.617188 29.285156 15.113281 29.285156 C 15.609375 29.285156 16.023438 28.941406 16.140625 28.480469 C 17.710938 28.203125 18.957031 26.964844 19.242188 25.394531 L 19.519531 25.34375 C 19.8125 25.292969 20.007812 25.011719 19.957031 24.71875 C 19.90625 24.425781 19.628906 24.226562 19.332031 24.277344 L 19.308594 24.28125 L 19.308594 23.285156 L 19.554688 23.242188 C 19.851562 23.191406 20.046875 22.914062 19.996094 22.617188 C 19.945312 22.324219 19.667969 22.125 19.371094 22.175781 L 19.308594 22.1875 L 19.308594 21.550781 C 19.308594 21.03125 19.546875 20.550781 19.941406 20.257812 Z M 10.867188 19.34375 C 9.0625 17.988281 8 15.832031 8.03125 13.574219 C 8.078125 9.890625 10.988281 6.824219 14.660156 6.597656 C 14.8125 6.585938 14.960938 6.582031 15.113281 6.582031 C 19.015625 6.582031 22.195312 9.761719 22.195312 13.671875 C 22.195312 15.917969 21.113281 18.054688 19.300781 19.386719 C 18.703125 19.824219 18.324219 20.511719 18.246094 21.265625 L 11.980469 21.265625 C 11.898438 20.511719 11.503906 19.824219 10.867188 19.34375 Z M 11.996094 24.695312 L 11.996094 24.316406 L 18.230469 23.238281 L 18.230469 24.695312 C 18.230469 24.703125 18.226562 24.707031 18.226562 24.710938 L 12.207031 25.753906 C 12.070312 25.429688 11.996094 25.070312 11.996094 24.695312 Z M 18.230469 22.609375 L 11.996094 23.6875 L 11.996094 22.039062 L 18.230469 22.039062 Z M 15.464844 27.460938 L 14.761719 27.460938 C 13.84375 27.460938 13.035156 27.011719 12.53125 26.328125 L 18.144531 25.355469 C 17.851562 26.5625 16.761719 27.460938 15.464844 27.460938 Z M 15.464844 27.460938 " fill-opacity="1" fill-rule="nonzero"/></g><path fill="#fd408e" d="M 14.402344 17.425781 C 14.5625 17.574219 14.769531 17.652344 14.984375 17.652344 C 15.261719 17.652344 15.515625 17.527344 15.679688 17.308594 L 18.839844 13.140625 C 19.121094 12.773438 19.050781 12.246094 18.683594 11.96875 L 17.757812 11.253906 C 17.398438 10.976562 16.839844 11.054688 16.570312 11.421875 L 14.628906 14.058594 L 13.101562 12.683594 C 12.757812 12.375 12.183594 12.421875 11.890625 12.773438 L 11.277344 13.519531 C 10.992188 13.867188 11.03125 14.375 11.363281 14.675781 Z M 11.875 14.011719 L 12.488281 13.265625 C 12.503906 13.246094 12.527344 13.242188 12.539062 13.242188 C 12.558594 13.242188 12.570312 13.246094 12.585938 13.257812 L 14.136719 14.652344 C 14.449219 14.933594 14.984375 14.878906 15.234375 14.542969 L 17.191406 11.878906 C 17.230469 11.828125 17.265625 11.847656 17.285156 11.867188 L 18.214844 12.578125 C 18.242188 12.601562 18.246094 12.644531 18.226562 12.671875 L 15.066406 16.839844 C 15.039062 16.875 15.003906 16.878906 14.984375 16.878906 C 14.96875 16.878906 14.941406 16.875 14.917969 16.855469 L 11.882812 14.105469 C 11.855469 14.078125 11.851562 14.039062 11.875 14.011719 Z M 11.875 14.011719 " fill-opacity="1" fill-rule="nonzero"/></svg>