<svg xmlns="http://www.w3.org/2000/svg" xmlns:xlink="http://www.w3.org/1999/xlink" width="40" zoomAndPan="magnify" viewBox="0 0 30 30.000001" height="40" preserveAspectRatio="xMidYMid meet" version="1.0"><defs><clipPath id="1d6d86cd08"><path d="M 3 0 L 27.828125 0 L 27.828125 29.03125 L 3 29.03125 Z M 3 0 " clip-rule="nonzero"/></clipPath></defs><g clip-path="url(#1d6d86cd08)"><path fill="#fd408e" d="M 15.160156 -0.0117188 C 14.824219 -0.0117188 14.585938 0.117188 14.324219 0.257812 C 14.0625 0.402344 13.792969 0.574219 13.53125 0.753906 C 13.265625 0.929688 13.007812 1.113281 12.792969 1.25 C 12.578125 1.382812 12.378906 1.476562 12.355469 1.484375 C 12.328125 1.492188 12.113281 1.503906 11.855469 1.492188 C 11.597656 1.484375 11.289062 1.457031 10.96875 1.429688 C 10.652344 1.40625 10.328125 1.382812 10.027344 1.390625 C 9.726562 1.394531 9.457031 1.402344 9.164062 1.566406 C 8.871094 1.734375 8.730469 1.964844 8.574219 2.21875 C 8.421875 2.46875 8.277344 2.753906 8.140625 3.035156 C 8.003906 3.320312 7.871094 3.597656 7.753906 3.824219 C 7.636719 4.046875 7.515625 4.222656 7.496094 4.238281 C 7.476562 4.257812 7.292969 4.382812 7.066406 4.5 C 6.839844 4.617188 6.554688 4.746094 6.265625 4.878906 C 5.976562 5.015625 5.691406 5.15625 5.433594 5.308594 C 5.179688 5.460938 4.945312 5.597656 4.777344 5.886719 C 4.609375 6.175781 4.601562 6.441406 4.597656 6.734375 C 4.589844 7.03125 4.609375 7.351562 4.632812 7.664062 C 4.660156 7.976562 4.683594 8.28125 4.695312 8.53125 C 4.707031 8.785156 4.691406 8.996094 4.6875 9.023438 C 4.679688 9.050781 4.585938 9.242188 4.449219 9.457031 C 4.308594 9.667969 4.128906 9.921875 3.949219 10.179688 C 3.769531 10.4375 3.585938 10.699219 3.441406 10.957031 C 3.296875 11.214844 3.167969 11.453125 3.167969 11.785156 C 3.167969 12.117188 3.296875 12.347656 3.441406 12.605469 C 3.585938 12.867188 3.769531 13.128906 3.949219 13.390625 C 4.128906 13.648438 4.308594 13.902344 4.449219 14.113281 C 4.585938 14.324219 4.679688 14.515625 4.6875 14.539062 C 4.695312 14.566406 4.710938 14.785156 4.695312 15.035156 C 4.6875 15.289062 4.660156 15.59375 4.632812 15.90625 C 4.609375 16.21875 4.589844 16.535156 4.597656 16.828125 C 4.601562 17.125 4.609375 17.394531 4.777344 17.683594 C 4.945312 17.972656 5.179688 18.109375 5.433594 18.261719 C 5.691406 18.414062 5.976562 18.550781 6.265625 18.6875 C 6.554688 18.824219 6.839844 18.953125 7.066406 19.066406 C 7.292969 19.183594 7.476562 19.304688 7.496094 19.324219 C 7.511719 19.34375 7.625 19.5 7.734375 19.707031 L 4.246094 25.65625 C 4.144531 25.828125 4.144531 26 4.253906 26.171875 C 4.359375 26.339844 4.511719 26.421875 4.714844 26.410156 L 7.664062 26.234375 L 8.984375 28.832031 C 9.078125 29.007812 9.222656 29.101562 9.421875 29.105469 C 9.625 29.113281 9.777344 29.03125 9.875 28.859375 L 13.457031 22.761719 C 13.480469 22.777344 13.503906 22.792969 13.53125 22.808594 C 13.792969 22.988281 14.0625 23.164062 14.324219 23.304688 C 14.585938 23.449219 14.824219 23.574219 15.160156 23.574219 C 15.5 23.574219 15.734375 23.449219 16 23.304688 C 16.261719 23.164062 16.53125 22.988281 16.792969 22.808594 C 16.820312 22.792969 16.84375 22.777344 16.867188 22.761719 L 20.445312 28.859375 C 20.546875 29.03125 20.695312 29.113281 20.898438 29.109375 C 21.097656 29.101562 21.246094 29.011719 21.335938 28.832031 L 22.65625 26.234375 L 25.609375 26.410156 C 25.8125 26.421875 25.964844 26.34375 26.074219 26.171875 C 26.179688 26.003906 26.183594 25.828125 26.082031 25.65625 L 22.585938 19.707031 C 22.699219 19.5 22.808594 19.34375 22.828125 19.324219 C 22.847656 19.304688 23.027344 19.183594 23.257812 19.066406 C 23.484375 18.953125 23.769531 18.824219 24.054688 18.6875 C 24.34375 18.550781 24.632812 18.414062 24.886719 18.261719 C 25.144531 18.109375 25.375 17.972656 25.546875 17.683594 C 25.714844 17.394531 25.71875 17.125 25.726562 16.828125 C 25.730469 16.535156 25.714844 16.21875 25.6875 15.90625 C 25.664062 15.59375 25.636719 15.289062 25.625 15.035156 C 25.613281 14.785156 25.628906 14.566406 25.636719 14.539062 C 25.644531 14.515625 25.738281 14.324219 25.875 14.113281 C 26.015625 13.902344 26.191406 13.648438 26.371094 13.390625 C 26.554688 13.128906 26.738281 12.867188 26.882812 12.605469 C 27.027344 12.347656 27.152344 12.117188 27.152344 11.785156 C 27.152344 11.453125 27.027344 11.214844 26.882812 10.957031 C 26.738281 10.699219 26.554688 10.4375 26.371094 10.179688 C 26.191406 9.921875 26.015625 9.667969 25.875 9.457031 C 25.738281 9.242188 25.644531 9.046875 25.636719 9.023438 C 25.628906 8.996094 25.613281 8.785156 25.625 8.53125 C 25.636719 8.28125 25.664062 7.976562 25.6875 7.664062 C 25.714844 7.351562 25.730469 7.03125 25.726562 6.734375 C 25.71875 6.441406 25.714844 6.175781 25.546875 5.886719 C 25.375 5.597656 25.144531 5.460938 24.886719 5.308594 C 24.632812 5.15625 24.34375 5.015625 24.054688 4.878906 C 23.769531 4.746094 23.484375 4.617188 23.257812 4.5 C 23.027344 4.382812 22.847656 4.257812 22.828125 4.238281 C 22.808594 4.222656 22.6875 4.046875 22.566406 3.824219 C 22.449219 3.597656 22.320312 3.320312 22.179688 3.035156 C 22.042969 2.753906 21.902344 2.46875 21.746094 2.21875 C 21.59375 1.964844 21.453125 1.734375 21.160156 1.566406 C 20.863281 1.398438 20.59375 1.394531 20.296875 1.390625 C 19.996094 1.382812 19.671875 1.410156 19.351562 1.429688 C 19.035156 1.457031 18.722656 1.480469 18.46875 1.492188 C 18.210938 1.503906 17.996094 1.492188 17.96875 1.484375 C 17.945312 1.472656 17.746094 1.386719 17.53125 1.25 C 17.3125 1.113281 17.054688 0.929688 16.792969 0.753906 C 16.53125 0.574219 16.261719 0.402344 16 0.257812 C 15.734375 0.117188 15.5 -0.0117188 15.160156 -0.0117188 Z M 15.160156 0.992188 C 15.179688 1 15.335938 1.039062 15.511719 1.132812 C 15.714844 1.242188 15.964844 1.410156 16.21875 1.582031 C 16.476562 1.753906 16.734375 1.933594 16.976562 2.085938 C 17.222656 2.242188 17.433594 2.375 17.703125 2.445312 C 17.976562 2.519531 18.222656 2.507812 18.515625 2.492188 C 18.804688 2.480469 19.125 2.449219 19.429688 2.425781 C 19.738281 2.402344 20.039062 2.386719 20.273438 2.390625 C 20.472656 2.394531 20.628906 2.4375 20.648438 2.441406 C 20.664062 2.460938 20.777344 2.566406 20.878906 2.734375 C 21 2.929688 21.132812 3.195312 21.265625 3.46875 C 21.398438 3.742188 21.527344 4.027344 21.660156 4.28125 C 21.796875 4.535156 21.910156 4.753906 22.109375 4.949219 C 22.304688 5.144531 22.527344 5.253906 22.785156 5.386719 C 23.042969 5.515625 23.339844 5.648438 23.617188 5.78125 C 23.898438 5.914062 24.164062 6.042969 24.363281 6.160156 C 24.535156 6.261719 24.644531 6.375 24.664062 6.386719 C 24.664062 6.410156 24.703125 6.5625 24.707031 6.757812 C 24.714844 6.984375 24.695312 7.28125 24.671875 7.585938 C 24.648438 7.886719 24.621094 8.199219 24.609375 8.484375 C 24.59375 8.773438 24.578125 9.015625 24.648438 9.28125 C 24.722656 9.550781 24.859375 9.753906 25.015625 9.996094 C 25.171875 10.238281 25.359375 10.492188 25.535156 10.742188 C 25.710938 10.992188 25.875 11.238281 25.984375 11.441406 C 26.082031 11.609375 26.121094 11.761719 26.132812 11.785156 C 26.121094 11.804688 26.082031 11.949219 25.984375 12.121094 C 25.875 12.324219 25.710938 12.570312 25.535156 12.820312 C 25.359375 13.070312 25.171875 13.328125 25.015625 13.570312 C 24.859375 13.8125 24.722656 14.019531 24.648438 14.285156 C 24.578125 14.550781 24.59375 14.796875 24.609375 15.082031 C 24.621094 15.367188 24.648438 15.679688 24.671875 15.984375 C 24.695312 16.285156 24.714844 16.578125 24.707031 16.808594 C 24.703125 17 24.664062 17.152344 24.664062 17.175781 C 24.644531 17.1875 24.535156 17.300781 24.363281 17.402344 C 24.164062 17.519531 23.898438 17.65625 23.617188 17.785156 C 23.339844 17.917969 23.042969 18.046875 22.785156 18.179688 C 22.527344 18.308594 22.304688 18.421875 22.109375 18.617188 C 21.910156 18.808594 21.796875 19.027344 21.660156 19.28125 C 21.527344 19.535156 21.398438 19.824219 21.265625 20.101562 C 21.132812 20.375 21 20.632812 20.878906 20.828125 C 20.777344 20.996094 20.664062 21.109375 20.648438 21.128906 C 20.628906 21.128906 20.472656 21.167969 20.273438 21.171875 C 20.039062 21.179688 19.738281 21.160156 19.429688 21.136719 C 19.125 21.113281 18.804688 21.082031 18.515625 21.070312 C 18.222656 21.054688 17.976562 21.042969 17.703125 21.117188 C 17.433594 21.1875 17.222656 21.320312 16.976562 21.476562 C 16.734375 21.628906 16.476562 21.8125 16.21875 21.988281 C 15.964844 22.160156 15.714844 22.320312 15.511719 22.429688 C 15.335938 22.523438 15.179688 22.5625 15.160156 22.574219 C 15.136719 22.5625 14.984375 22.523438 14.8125 22.429688 C 14.609375 22.320312 14.355469 22.160156 14.101562 21.988281 C 13.847656 21.8125 13.589844 21.628906 13.34375 21.476562 C 13.097656 21.320312 12.886719 21.1875 12.617188 21.117188 C 12.347656 21.042969 12.097656 21.054688 11.808594 21.070312 C 11.515625 21.082031 11.199219 21.113281 10.890625 21.136719 C 10.582031 21.160156 10.28125 21.179688 10.046875 21.171875 C 9.851562 21.167969 9.699219 21.132812 9.675781 21.128906 C 9.660156 21.109375 9.546875 20.996094 9.445312 20.828125 C 9.324219 20.632812 9.191406 20.375 9.058594 20.101562 C 8.925781 19.824219 8.792969 19.535156 8.660156 19.28125 C 8.527344 19.027344 8.414062 18.808594 8.214844 18.617188 C 8.015625 18.421875 7.789062 18.308594 7.53125 18.179688 C 7.273438 18.046875 6.984375 17.917969 6.707031 17.785156 C 6.425781 17.65625 6.15625 17.519531 5.957031 17.402344 C 5.789062 17.300781 5.679688 17.191406 5.660156 17.175781 C 5.65625 17.152344 5.617188 17.003906 5.613281 16.808594 C 5.609375 16.578125 5.628906 16.285156 5.652344 15.984375 C 5.675781 15.679688 5.699219 15.367188 5.714844 15.082031 C 5.726562 14.796875 5.746094 14.550781 5.671875 14.285156 C 5.597656 14.019531 5.464844 13.8125 5.304688 13.570312 C 5.148438 13.328125 4.960938 13.070312 4.789062 12.820312 C 4.613281 12.570312 4.449219 12.324219 4.335938 12.121094 C 4.242188 11.949219 4.203125 11.804688 4.191406 11.785156 C 4.203125 11.761719 4.242188 11.609375 4.335938 11.441406 C 4.449219 11.238281 4.613281 10.992188 4.789062 10.742188 C 4.960938 10.492188 5.148438 10.238281 5.304688 9.996094 C 5.464844 9.753906 5.597656 9.550781 5.671875 9.28125 C 5.746094 9.015625 5.726562 8.773438 5.714844 8.484375 C 5.699219 8.199219 5.675781 7.886719 5.652344 7.585938 C 5.628906 7.28125 5.609375 6.984375 5.613281 6.757812 C 5.617188 6.5625 5.65625 6.410156 5.660156 6.386719 C 5.679688 6.371094 5.789062 6.261719 5.957031 6.160156 C 6.15625 6.042969 6.425781 5.914062 6.707031 5.78125 C 6.984375 5.648438 7.273438 5.515625 7.53125 5.386719 C 7.789062 5.253906 8.015625 5.144531 8.214844 4.949219 C 8.414062 4.753906 8.527344 4.535156 8.660156 4.28125 C 8.792969 4.027344 8.925781 3.742188 9.058594 3.46875 C 9.191406 3.195312 9.324219 2.929688 9.445312 2.734375 C 9.546875 2.566406 9.660156 2.457031 9.671875 2.4375 C 9.699219 2.4375 9.851562 2.394531 10.046875 2.390625 C 10.28125 2.382812 10.582031 2.402344 10.890625 2.425781 C 11.199219 2.449219 11.515625 2.480469 11.808594 2.492188 C 12.097656 2.507812 12.347656 2.515625 12.617188 2.445312 C 12.886719 2.375 13.097656 2.242188 13.34375 2.085938 C 13.589844 1.933594 13.847656 1.753906 14.101562 1.582031 C 14.355469 1.410156 14.609375 1.242188 14.8125 1.132812 C 14.984375 1.039062 15.136719 1 15.160156 0.992188 Z M 15.160156 4.210938 C 10.917969 4.210938 7.46875 7.609375 7.46875 11.785156 C 7.46875 15.960938 10.917969 19.351562 15.160156 19.351562 C 19.402344 19.351562 22.851562 15.960938 22.851562 11.785156 C 22.851562 7.609375 19.402344 4.210938 15.160156 4.210938 Z M 15.160156 5.214844 C 18.855469 5.214844 21.835938 8.152344 21.835938 11.785156 C 21.835938 15.414062 18.855469 18.347656 15.160156 18.347656 C 11.464844 18.347656 8.484375 15.414062 8.484375 11.785156 C 8.484375 8.152344 11.464844 5.214844 15.160156 5.214844 Z M 15.160156 9.113281 C 15.011719 9.113281 14.886719 9.167969 14.785156 9.277344 L 13.671875 10.496094 L 11.761719 9.199219 C 11.574219 9.074219 11.386719 9.074219 11.195312 9.195312 C 11.007812 9.320312 10.933594 9.492188 10.976562 9.710938 L 11.835938 14.042969 C 11.859375 14.164062 11.917969 14.261719 12.011719 14.335938 C 12.105469 14.414062 12.210938 14.453125 12.332031 14.453125 L 17.988281 14.453125 C 18.109375 14.453125 18.21875 14.414062 18.3125 14.335938 C 18.40625 14.261719 18.464844 14.164062 18.488281 14.042969 L 19.34375 9.710938 C 19.386719 9.492188 19.3125 9.320312 19.125 9.195312 C 18.9375 9.074219 18.75 9.074219 18.5625 9.199219 L 16.65625 10.496094 L 15.535156 9.277344 C 15.433594 9.167969 15.308594 9.113281 15.160156 9.113281 Z M 15.160156 10.363281 L 16.199219 11.5 C 16.28125 11.59375 16.386719 11.644531 16.515625 11.660156 C 16.640625 11.675781 16.757812 11.648438 16.859375 11.578125 L 18.113281 10.722656 L 17.570312 13.449219 L 12.75 13.449219 L 12.214844 10.722656 L 13.460938 11.578125 C 13.566406 11.648438 13.679688 11.675781 13.808594 11.660156 C 13.933594 11.644531 14.039062 11.59375 14.125 11.5 Z M 8.269531 20.792969 C 8.367188 20.988281 8.46875 21.175781 8.574219 21.351562 C 8.730469 21.601562 8.871094 21.832031 9.164062 21.996094 C 9.457031 22.164062 9.726562 22.167969 10.027344 22.171875 C 10.328125 22.179688 10.652344 22.160156 10.96875 22.136719 C 11.289062 22.113281 11.597656 22.082031 11.855469 22.070312 C 12.113281 22.058594 12.328125 22.078125 12.355469 22.085938 C 12.371094 22.089844 12.472656 22.136719 12.605469 22.210938 L 9.472656 27.554688 L 8.421875 25.488281 C 8.320312 25.292969 8.160156 25.199219 7.9375 25.210938 L 5.597656 25.351562 Z M 22.050781 20.792969 L 24.722656 25.351562 L 22.386719 25.210938 C 22.164062 25.199219 22.003906 25.292969 21.90625 25.488281 L 20.851562 27.554688 L 17.714844 22.210938 C 17.847656 22.136719 17.953125 22.089844 17.96875 22.085938 C 17.996094 22.078125 18.210938 22.058594 18.46875 22.070312 C 18.722656 22.082031 19.035156 22.113281 19.351562 22.136719 C 19.671875 22.160156 19.996094 22.179688 20.296875 22.171875 C 20.59375 22.167969 20.863281 22.164062 21.160156 21.996094 C 21.453125 21.832031 21.59375 21.601562 21.746094 21.351562 C 21.855469 21.175781 21.953125 20.988281 22.050781 20.792969 Z M 22.050781 20.792969 " fill-opacity="1" fill-rule="nonzero"/></g></svg>