<svg xmlns="http://www.w3.org/2000/svg" xmlns:xlink="http://www.w3.org/1999/xlink" width="40" zoomAndPan="magnify" viewBox="0 0 30 30.000001" height="40" preserveAspectRatio="xMidYMid meet" version="1.0"><defs><clipPath id="c83ca1177e"><path d="M 0.484375 0.328125 L 28.789062 0.328125 L 28.789062 25 L 0.484375 25 Z M 0.484375 0.328125 " clip-rule="nonzero"/></clipPath><clipPath id="3ce9d33a3d"><path d="M 22 22 L 28.789062 22 L 28.789062 28.632812 L 22 28.632812 Z M 22 22 " clip-rule="nonzero"/></clipPath></defs><g clip-path="url(#c83ca1177e)"><path fill="#fd408e" d="M 27.628906 10.402344 L 26.796875 10.402344 L 27.183594 6.875 C 27.21875 6.550781 27.195312 6.230469 27.109375 5.914062 C 27.023438 5.601562 26.886719 5.3125 26.691406 5.046875 C 26.5 4.785156 26.261719 4.566406 25.988281 4.394531 C 25.710938 4.21875 25.414062 4.101562 25.09375 4.039062 L 25.09375 1.488281 C 25.09375 1.332031 25.0625 1.183594 25.003906 1.042969 C 24.945312 0.902344 24.863281 0.777344 24.753906 0.667969 C 24.644531 0.558594 24.519531 0.472656 24.378906 0.414062 C 24.234375 0.355469 24.085938 0.328125 23.933594 0.328125 L 16.582031 0.328125 C 16.429688 0.328125 16.28125 0.355469 16.140625 0.414062 C 15.996094 0.472656 15.871094 0.558594 15.761719 0.667969 C 15.65625 0.777344 15.570312 0.902344 15.511719 1.042969 C 15.453125 1.183594 15.421875 1.332031 15.421875 1.488281 L 15.421875 3.992188 L 13.71875 3.992188 L 13.71875 1.820312 C 13.71875 1.667969 13.691406 1.519531 13.632812 1.375 C 13.574219 1.234375 13.488281 1.109375 13.378906 1 C 13.269531 0.890625 13.144531 0.808594 13.003906 0.75 C 12.863281 0.691406 12.714844 0.660156 12.558594 0.660156 L 5.214844 0.660156 C 5.0625 0.660156 4.914062 0.691406 4.773438 0.75 C 4.628906 0.808594 4.503906 0.890625 4.398438 1 C 4.289062 1.109375 4.203125 1.234375 4.144531 1.375 C 4.085938 1.519531 4.054688 1.667969 4.054688 1.820312 L 4.054688 3.992188 L 3.765625 3.992188 C 3.398438 3.992188 3.042969 4.066406 2.707031 4.21875 C 2.371094 4.367188 2.078125 4.582031 1.832031 4.855469 C 1.585938 5.132812 1.40625 5.445312 1.292969 5.796875 C 1.179688 6.148438 1.144531 6.507812 1.183594 6.875 L 1.503906 9.824219 C 1.214844 9.855469 0.972656 9.984375 0.777344 10.203125 C 0.582031 10.421875 0.484375 10.675781 0.484375 10.96875 L 0.484375 17.914062 C 0.484375 18.066406 0.515625 18.214844 0.574219 18.355469 C 0.632812 18.5 0.714844 18.625 0.824219 18.734375 C 0.933594 18.84375 1.058594 18.925781 1.199219 18.984375 C 1.34375 19.042969 1.488281 19.074219 1.644531 19.074219 L 2.515625 19.074219 L 2.515625 19.167969 C 2.550781 19.488281 2.640625 19.789062 2.789062 20.074219 C 2.933594 20.359375 3.125 20.609375 3.363281 20.824219 C 3.601562 21.035156 3.871094 21.199219 4.171875 21.316406 C 4.46875 21.429688 4.777344 21.484375 5.097656 21.484375 L 12.953125 21.484375 C 14.488281 23.730469 16.972656 24.589844 18.808594 24.914062 C 18.859375 24.921875 18.914062 24.925781 18.96875 24.925781 C 19.152344 24.925781 19.316406 24.871094 19.46875 24.765625 C 19.617188 24.660156 19.726562 24.523438 19.789062 24.351562 C 19.851562 24.179688 19.859375 24.003906 19.8125 23.828125 C 19.769531 23.648438 19.675781 23.5 19.539062 23.378906 C 18.921875 22.886719 18.53125 22.253906 18.363281 21.484375 L 23.257812 21.484375 C 23.558594 21.484375 23.847656 21.4375 24.128906 21.335938 C 24.414062 21.234375 24.671875 21.089844 24.902344 20.902344 C 25.132812 20.710938 25.328125 20.488281 25.484375 20.230469 C 25.636719 19.976562 25.746094 19.699219 25.804688 19.40625 L 27.628906 19.40625 C 27.785156 19.40625 27.933594 19.375 28.074219 19.316406 C 28.214844 19.257812 28.339844 19.175781 28.449219 19.066406 C 28.558594 18.957031 28.640625 18.832031 28.703125 18.691406 C 28.761719 18.546875 28.789062 18.402344 28.789062 18.246094 L 28.789062 11.5625 C 28.789062 11.40625 28.761719 11.261719 28.699219 11.117188 C 28.640625 10.976562 28.558594 10.851562 28.449219 10.742188 C 28.339844 10.636719 28.214844 10.550781 28.074219 10.492188 C 27.929688 10.433594 27.785156 10.40625 27.628906 10.402344 Z M 16.152344 1.488281 C 16.152344 1.367188 16.195312 1.265625 16.277344 1.183594 C 16.363281 1.097656 16.464844 1.054688 16.582031 1.054688 L 23.929688 1.054688 C 24.050781 1.054688 24.152344 1.097656 24.238281 1.179688 C 24.320312 1.265625 24.363281 1.367188 24.363281 1.488281 L 24.363281 7.855469 C 24.363281 7.972656 24.324219 8.074219 24.238281 8.160156 C 24.152344 8.242188 24.054688 8.285156 23.933594 8.285156 L 16.582031 8.285156 C 16.464844 8.285156 16.363281 8.242188 16.277344 8.160156 C 16.195312 8.074219 16.152344 7.972656 16.152344 7.855469 Z M 4.785156 5.292969 L 7.367188 3.480469 L 10.109375 5.402344 C 10.253906 5.507812 10.394531 5.507812 10.539062 5.402344 L 11.894531 4.355469 L 12.992188 5.28125 L 12.992188 6.984375 C 12.992188 7.105469 12.949219 7.203125 12.867188 7.289062 C 12.78125 7.371094 12.679688 7.414062 12.5625 7.414062 L 5.214844 7.414062 C 5.097656 7.414062 4.996094 7.371094 4.910156 7.289062 C 4.828125 7.203125 4.785156 7.105469 4.785156 6.984375 Z M 4.785156 1.820312 C 4.785156 1.699219 4.828125 1.597656 4.910156 1.515625 C 4.996094 1.429688 5.097656 1.390625 5.214844 1.390625 L 12.5625 1.390625 C 12.679688 1.390625 12.78125 1.429688 12.867188 1.515625 C 12.949219 1.597656 12.992188 1.699219 12.992188 1.820312 L 12.992188 4.320312 L 12.140625 3.589844 C 11.988281 3.46875 11.835938 3.46875 11.683594 3.589844 L 10.304688 4.652344 L 7.585938 2.738281 C 7.445312 2.640625 7.304688 2.640625 7.167969 2.738281 L 4.792969 4.402344 Z M 1.214844 17.914062 L 1.214844 10.96875 C 1.214844 10.847656 1.253906 10.746094 1.339844 10.664062 C 1.421875 10.578125 1.523438 10.539062 1.644531 10.539062 L 11.082031 10.539062 L 9.449219 12.167969 L 5.433594 12.167969 C 5.335938 12.167969 5.25 12.207031 5.175781 12.277344 C 5.105469 12.347656 5.070312 12.433594 5.070312 12.535156 C 5.070312 12.636719 5.105469 12.722656 5.175781 12.792969 C 5.25 12.863281 5.335938 12.898438 5.433594 12.898438 L 8.71875 12.898438 L 7.546875 14.074219 L 3.003906 14.074219 C 2.90625 14.074219 2.820312 14.109375 2.746094 14.179688 C 2.675781 14.25 2.640625 14.335938 2.640625 14.4375 C 2.640625 14.539062 2.675781 14.625 2.746094 14.695312 C 2.820312 14.769531 2.90625 14.804688 3.003906 14.804688 L 7.179688 14.804688 L 6.9375 15.75 C 6.917969 15.824219 6.914062 15.902344 6.917969 15.976562 L 5.433594 15.976562 C 5.335938 15.976562 5.25 16.011719 5.175781 16.085938 C 5.105469 16.15625 5.070312 16.242188 5.070312 16.34375 C 5.070312 16.441406 5.105469 16.53125 5.175781 16.601562 C 5.25 16.671875 5.335938 16.707031 5.433594 16.707031 L 9.699219 16.707031 C 9.796875 16.707031 9.882812 16.671875 9.957031 16.601562 C 10.027344 16.53125 10.0625 16.441406 10.0625 16.34375 C 10.0625 16.242188 10.027344 16.15625 9.957031 16.085938 C 9.882812 16.011719 9.796875 15.976562 9.699219 15.976562 L 9.617188 15.976562 L 11.492188 14.101562 L 11.492188 17.914062 C 11.492188 18.03125 11.449219 18.132812 11.363281 18.21875 C 11.28125 18.300781 11.179688 18.34375 11.058594 18.34375 L 1.644531 18.34375 C 1.523438 18.34375 1.421875 18.300781 1.339844 18.21875 C 1.253906 18.132812 1.214844 18.03125 1.214844 17.914062 Z M 9.011719 15.550781 C 8.949219 15.613281 8.878906 15.65625 8.792969 15.675781 L 7.679688 15.953125 L 7.65625 15.929688 L 7.929688 14.820312 C 7.953125 14.734375 7.992188 14.660156 8.054688 14.597656 C 8.09375 14.558594 11.851562 10.796875 11.902344 10.757812 C 12.042969 10.65625 12.203125 10.609375 12.378906 10.628906 C 12.550781 10.648438 12.699219 10.722656 12.8125 10.855469 C 12.929688 10.988281 12.988281 11.140625 12.984375 11.316406 C 12.980469 11.492188 12.914062 11.644531 12.792969 11.769531 Z M 23.257812 20.757812 L 17.976562 20.757812 C 17.875 20.757812 17.789062 20.792969 17.71875 20.863281 C 17.648438 20.933594 17.609375 21.019531 17.609375 21.121094 C 17.609375 22.09375 18.160156 23.15625 19.070312 23.933594 C 19.132812 23.980469 19.144531 24.039062 19.105469 24.109375 C 19.074219 24.183594 19.019531 24.210938 18.941406 24.191406 C 17.207031 23.886719 14.84375 23.070312 13.460938 20.925781 C 13.390625 20.8125 13.289062 20.757812 13.15625 20.757812 L 5.109375 20.757812 C 4.878906 20.757812 4.65625 20.714844 4.441406 20.632812 C 4.226562 20.554688 4.035156 20.4375 3.863281 20.28125 C 3.691406 20.128906 3.554688 19.953125 3.449219 19.75 C 3.34375 19.542969 3.277344 19.328125 3.25 19.101562 L 3.25 19.082031 L 11.058594 19.082031 C 11.214844 19.082031 11.363281 19.054688 11.503906 18.996094 C 11.644531 18.933594 11.769531 18.851562 11.878906 18.742188 C 11.988281 18.632812 12.070312 18.507812 12.132812 18.367188 C 12.191406 18.226562 12.21875 18.078125 12.21875 17.921875 L 12.21875 13.375 L 13.308594 12.292969 C 13.558594 12.050781 13.699219 11.761719 13.734375 11.414062 C 13.765625 11.070312 13.683594 10.757812 13.488281 10.476562 C 13.289062 10.191406 13.019531 10.007812 12.6875 9.921875 C 12.351562 9.835938 12.027344 9.867188 11.71875 10.019531 C 11.519531 9.878906 11.296875 9.808594 11.050781 9.808594 L 2.234375 9.808594 L 1.910156 6.796875 C 1.878906 6.53125 1.90625 6.273438 1.988281 6.019531 C 2.070312 5.765625 2.199219 5.542969 2.375 5.34375 C 2.554688 5.144531 2.761719 4.992188 3.003906 4.882812 C 3.246094 4.777344 3.5 4.722656 3.765625 4.722656 L 4.054688 4.722656 L 4.054688 6.96875 C 4.054688 7.125 4.085938 7.273438 4.144531 7.414062 C 4.203125 7.554688 4.289062 7.679688 4.398438 7.789062 C 4.503906 7.898438 4.632812 7.980469 4.773438 8.039062 C 4.914062 8.097656 5.0625 8.128906 5.214844 8.128906 L 12.5625 8.128906 C 12.714844 8.128906 12.863281 8.097656 13.007812 8.039062 C 13.148438 7.980469 13.273438 7.898438 13.382812 7.789062 C 13.492188 7.679688 13.574219 7.554688 13.632812 7.414062 C 13.691406 7.273438 13.722656 7.125 13.722656 6.96875 L 13.722656 4.722656 L 15.425781 4.722656 L 15.425781 7.855469 C 15.425781 8.007812 15.453125 8.15625 15.515625 8.296875 C 15.574219 8.441406 15.65625 8.566406 15.765625 8.675781 C 15.871094 8.78125 16 8.867188 16.140625 8.925781 C 16.28125 8.984375 16.429688 9.015625 16.582031 9.015625 L 23.929688 9.015625 C 24.082031 9.015625 24.230469 8.988281 24.375 8.929688 C 24.515625 8.871094 24.640625 8.785156 24.75 8.675781 C 24.859375 8.566406 24.945312 8.441406 25.003906 8.300781 C 25.0625 8.15625 25.09375 8.007812 25.09375 7.855469 L 25.09375 4.785156 C 25.308594 4.84375 25.507812 4.9375 25.6875 5.066406 C 25.871094 5.195312 26.023438 5.355469 26.148438 5.539062 C 26.273438 5.722656 26.363281 5.921875 26.417969 6.136719 C 26.472656 6.355469 26.488281 6.574219 26.464844 6.796875 L 26.066406 10.402344 L 18.25 10.402344 C 18.097656 10.40625 17.949219 10.433594 17.808594 10.492188 C 17.667969 10.550781 17.539062 10.636719 17.433594 10.742188 C 17.324219 10.851562 17.238281 10.976562 17.179688 11.117188 C 17.121094 11.261719 17.089844 11.40625 17.089844 11.5625 L 17.089844 18.246094 C 17.089844 18.402344 17.121094 18.546875 17.179688 18.691406 C 17.238281 18.832031 17.324219 18.957031 17.429688 19.066406 C 17.539062 19.175781 17.664062 19.257812 17.808594 19.316406 C 17.949219 19.375 18.097656 19.40625 18.25 19.40625 L 25.058594 19.40625 C 24.945312 19.808594 24.71875 20.132812 24.386719 20.382812 C 24.050781 20.632812 23.675781 20.757812 23.257812 20.757812 Z M 28.0625 18.246094 C 28.0625 18.367188 28.019531 18.46875 27.933594 18.550781 C 27.851562 18.636719 27.75 18.675781 27.628906 18.675781 L 18.25 18.675781 C 18.132812 18.675781 18.03125 18.636719 17.945312 18.550781 C 17.863281 18.46875 17.820312 18.367188 17.820312 18.246094 L 17.820312 11.5625 C 17.820312 11.441406 17.863281 11.339844 17.945312 11.257812 C 18.03125 11.171875 18.132812 11.132812 18.25 11.132812 L 27.628906 11.132812 C 27.75 11.132812 27.851562 11.171875 27.933594 11.257812 C 28.019531 11.339844 28.0625 11.441406 28.0625 11.5625 Z M 28.0625 18.246094 " fill-opacity="1" fill-rule="nonzero"/></g><path fill="#fd408e" d="M 24.824219 13.890625 L 22.175781 12.421875 C 22.085938 12.375 21.992188 12.335938 21.894531 12.3125 C 21.796875 12.285156 21.699219 12.273438 21.597656 12.277344 C 21.496094 12.277344 21.398438 12.292969 21.300781 12.320312 C 21.203125 12.347656 21.109375 12.386719 21.023438 12.4375 C 20.933594 12.488281 20.855469 12.550781 20.785156 12.621094 C 20.714844 12.695312 20.652344 12.773438 20.605469 12.863281 C 20.554688 12.949219 20.515625 13.042969 20.488281 13.140625 C 20.464844 13.238281 20.453125 13.335938 20.453125 13.4375 L 20.453125 16.371094 C 20.445312 16.816406 20.632812 17.15625 21.015625 17.382812 C 21.402344 17.613281 21.785156 17.617188 22.175781 17.398438 L 24.816406 15.9375 C 25.214844 15.71875 25.414062 15.378906 25.414062 14.921875 C 25.414062 14.46875 25.214844 14.128906 24.816406 13.910156 Z M 24.472656 15.28125 L 21.832031 16.742188 C 21.6875 16.824219 21.542969 16.824219 21.398438 16.742188 C 21.257812 16.65625 21.1875 16.535156 21.1875 16.371094 L 21.1875 13.4375 C 21.1875 13.273438 21.257812 13.148438 21.398438 13.066406 C 21.46875 13.027344 21.542969 13.007812 21.621094 13.007812 C 21.695312 13.007812 21.765625 13.023438 21.832031 13.0625 L 24.472656 14.519531 C 24.621094 14.601562 24.695312 14.726562 24.691406 14.898438 C 24.695312 15.070312 24.621094 15.199219 24.472656 15.28125 Z M 24.472656 15.28125 " fill-opacity="1" fill-rule="nonzero"/><path fill="#fd408e" d="M 3.003906 12.902344 L 3.914062 12.902344 C 4.015625 12.902344 4.101562 12.867188 4.171875 12.792969 C 4.246094 12.722656 4.28125 12.636719 4.28125 12.535156 C 4.28125 12.4375 4.246094 12.351562 4.171875 12.277344 C 4.101562 12.207031 4.015625 12.171875 3.914062 12.171875 L 3.003906 12.171875 C 2.90625 12.171875 2.820312 12.207031 2.746094 12.277344 C 2.675781 12.351562 2.640625 12.4375 2.640625 12.535156 C 2.640625 12.636719 2.675781 12.722656 2.746094 12.792969 C 2.820312 12.867188 2.90625 12.902344 3.003906 12.902344 Z M 3.003906 12.902344 " fill-opacity="1" fill-rule="nonzero"/><path fill="#fd408e" d="M 3.914062 15.980469 L 3.003906 15.980469 C 2.90625 15.980469 2.820312 16.015625 2.746094 16.085938 C 2.675781 16.160156 2.640625 16.246094 2.640625 16.34375 C 2.640625 16.445312 2.675781 16.53125 2.746094 16.601562 C 2.820312 16.675781 2.90625 16.710938 3.003906 16.710938 L 3.914062 16.710938 C 4.015625 16.710938 4.101562 16.675781 4.171875 16.601562 C 4.246094 16.53125 4.28125 16.445312 4.28125 16.34375 C 4.28125 16.246094 4.246094 16.160156 4.171875 16.085938 C 4.101562 16.015625 4.015625 15.980469 3.914062 15.980469 Z M 3.914062 15.980469 " fill-opacity="1" fill-rule="nonzero"/><g clip-path="url(#3ce9d33a3d)"><path fill="#fd408e" d="M 27.585938 23.863281 L 26.210938 23.863281 C 24.660156 23.863281 23.503906 23.480469 22.679688 22.691406 C 22.566406 22.582031 22.433594 22.554688 22.285156 22.621094 C 22.136719 22.683594 22.0625 22.792969 22.0625 22.953125 L 22.0625 27.957031 C 22.0625 28.121094 22.136719 28.234375 22.289062 28.296875 C 22.4375 28.359375 22.570312 28.332031 22.6875 28.21875 C 23.507812 27.40625 24.632812 27.027344 26.214844 27.027344 L 26.511719 27.027344 L 26.210938 28.175781 C 26.183594 28.273438 26.199219 28.367188 26.25 28.453125 C 26.300781 28.539062 26.375 28.59375 26.472656 28.621094 C 26.503906 28.625 26.535156 28.625 26.566406 28.621094 C 26.753906 28.621094 26.871094 28.527344 26.917969 28.347656 L 27.265625 27.011719 L 27.445312 27.011719 C 27.625 27.011719 27.796875 26.980469 27.960938 26.910156 C 28.125 26.84375 28.269531 26.746094 28.394531 26.617188 C 28.523438 26.492188 28.617188 26.347656 28.6875 26.183594 C 28.753906 26.019531 28.789062 25.847656 28.789062 25.667969 L 28.789062 25.054688 C 28.789062 24.898438 28.753906 24.746094 28.691406 24.601562 C 28.628906 24.457031 28.542969 24.328125 28.429688 24.214844 C 28.316406 24.105469 28.1875 24.019531 28.042969 23.957031 C 27.898438 23.898438 27.746094 23.867188 27.585938 23.863281 Z M 22.792969 23.722656 C 23.601562 24.261719 24.613281 24.546875 25.851562 24.59375 L 25.851562 26.3125 C 24.609375 26.355469 23.597656 26.648438 22.792969 27.195312 Z M 28.0625 25.6875 C 28.058594 25.859375 28 26.003906 27.878906 26.121094 C 27.761719 26.242188 27.613281 26.300781 27.445312 26.304688 L 26.578125 26.304688 L 26.578125 24.601562 L 27.585938 24.601562 C 27.722656 24.601562 27.835938 24.648438 27.929688 24.742188 C 28.027344 24.839844 28.074219 24.953125 28.074219 25.085938 Z M 28.0625 25.6875 " fill-opacity="1" fill-rule="nonzero"/></g><path fill="#fd408e" d="M 17.167969 7.386719 L 23.34375 7.386719 C 23.445312 7.386719 23.53125 7.351562 23.601562 7.28125 C 23.671875 7.207031 23.707031 7.121094 23.707031 7.019531 C 23.707031 6.921875 23.671875 6.835938 23.601562 6.761719 C 23.53125 6.691406 23.445312 6.65625 23.34375 6.65625 L 23.101562 6.65625 L 23.101562 3.78125 C 23.101562 3.679688 23.0625 3.59375 22.992188 3.523438 C 22.921875 3.449219 22.835938 3.414062 22.734375 3.414062 C 22.632812 3.414062 22.546875 3.449219 22.476562 3.523438 C 22.40625 3.59375 22.371094 3.679688 22.371094 3.78125 L 22.371094 6.65625 L 21.503906 6.65625 L 21.503906 4.507812 C 21.503906 4.410156 21.46875 4.324219 21.398438 4.25 C 21.328125 4.179688 21.242188 4.144531 21.140625 4.144531 C 21.039062 4.144531 20.953125 4.179688 20.882812 4.25 C 20.8125 4.324219 20.773438 4.410156 20.773438 4.507812 L 20.773438 6.660156 L 19.898438 6.660156 L 19.898438 4.765625 C 19.898438 4.667969 19.863281 4.582031 19.792969 4.507812 C 19.722656 4.4375 19.636719 4.402344 19.535156 4.402344 C 19.433594 4.402344 19.347656 4.4375 19.277344 4.507812 C 19.207031 4.582031 19.171875 4.667969 19.171875 4.765625 L 19.171875 6.65625 L 18.285156 6.65625 L 18.285156 5.074219 C 18.285156 4.972656 18.25 4.886719 18.179688 4.816406 C 18.105469 4.746094 18.019531 4.707031 17.921875 4.707031 C 17.820312 4.707031 17.734375 4.746094 17.664062 4.816406 C 17.589844 4.886719 17.554688 4.972656 17.554688 5.074219 L 17.554688 6.65625 L 17.167969 6.65625 C 17.066406 6.65625 16.980469 6.691406 16.910156 6.761719 C 16.839844 6.835938 16.804688 6.921875 16.804688 7.019531 C 16.804688 7.121094 16.839844 7.207031 16.910156 7.28125 C 16.980469 7.351562 17.066406 7.386719 17.167969 7.386719 Z M 17.167969 7.386719 " fill-opacity="1" fill-rule="nonzero"/><path fill="#fd408e" d="M 17.816406 4.117188 L 19.316406 3.488281 L 21.140625 3.488281 C 21.195312 3.488281 21.25 3.472656 21.300781 3.449219 L 22.90625 2.648438 C 22.988281 2.597656 23.046875 2.527344 23.074219 2.433594 C 23.101562 2.34375 23.097656 2.253906 23.050781 2.164062 C 23.007812 2.078125 22.941406 2.019531 22.851562 1.984375 C 22.757812 1.953125 22.667969 1.957031 22.578125 1.996094 L 21.054688 2.757812 L 19.242188 2.757812 C 19.195312 2.757812 19.148438 2.765625 19.101562 2.785156 L 17.535156 3.445312 C 17.441406 3.484375 17.375 3.550781 17.335938 3.644531 C 17.296875 3.734375 17.296875 3.828125 17.335938 3.921875 C 17.375 4.015625 17.441406 4.082031 17.535156 4.117188 C 17.628906 4.15625 17.722656 4.15625 17.816406 4.117188 Z M 17.816406 4.117188 " fill-opacity="1" fill-rule="nonzero"/></svg>