<svg xmlns="http://www.w3.org/2000/svg" xmlns:xlink="http://www.w3.org/1999/xlink" width="40" zoomAndPan="magnify" viewBox="0 0 30 30.000001" height="40" preserveAspectRatio="xMidYMid meet" version="1.0"><defs><clipPath id="17228aa4f5"><path d="M 0.484375 0 L 27 0 L 27 27 L 0.484375 27 Z M 0.484375 0 " clip-rule="nonzero"/></clipPath><clipPath id="e3d40e18ef"><path d="M 18 16 L 28.789062 16 L 28.789062 29.03125 L 18 29.03125 Z M 18 16 " clip-rule="nonzero"/></clipPath></defs><g clip-path="url(#17228aa4f5)"><path fill="#fd408e" d="M 13.175781 7.050781 C 11.613281 7.023438 10.097656 6.863281 8.699219 6.585938 C 8.945312 5.820312 9.230469 5.097656 9.558594 4.441406 C 10.5625 2.433594 11.832031 1.238281 13.175781 1.007812 Z M 13.175781 12.769531 L 7.746094 12.769531 C 7.78125 10.902344 8.015625 9.113281 8.4375 7.5 C 9.917969 7.800781 11.523438 7.972656 13.175781 8 Z M 13.175781 18.515625 C 11.527344 18.542969 9.925781 18.714844 8.445312 19.015625 C 8.019531 17.394531 7.78125 15.59375 7.746094 13.71875 L 13.175781 13.71875 Z M 13.175781 25.476562 C 11.832031 25.25 10.5625 24.054688 9.558594 22.046875 C 9.234375 21.398438 8.949219 20.6875 8.710938 19.929688 C 10.105469 19.652344 11.617188 19.492188 13.175781 19.46875 Z M 4.460938 21.324219 C 5.417969 20.835938 6.535156 20.4375 7.769531 20.136719 C 8.4375 22.289062 9.417969 24.027344 10.597656 25.132812 C 8.183594 24.507812 6.058594 23.152344 4.460938 21.324219 Z M 3.851562 20.570312 C 2.421875 18.640625 1.539062 16.28125 1.445312 13.71875 L 6.800781 13.71875 C 6.835938 15.707031 7.085938 17.566406 7.511719 19.222656 C 6.140625 19.5625 4.902344 20.015625 3.851562 20.570312 Z M 3.835938 5.941406 C 4.886719 6.496094 6.128906 6.953125 7.503906 7.292969 C 7.082031 8.941406 6.835938 10.792969 6.800781 12.769531 L 1.445312 12.769531 C 1.539062 10.21875 2.414062 7.863281 3.835938 5.941406 Z M 10.597656 1.355469 C 9.414062 2.464844 8.429688 4.210938 7.757812 6.378906 C 6.523438 6.078125 5.402344 5.675781 4.441406 5.1875 C 6.039062 3.34375 8.171875 1.984375 10.597656 1.355469 Z M 14.121094 8 C 15.777344 7.972656 17.378906 7.800781 18.863281 7.5 C 19.28125 9.113281 19.519531 10.902344 19.554688 12.769531 L 14.121094 12.769531 Z M 14.121094 1.007812 C 15.464844 1.238281 16.738281 2.433594 17.742188 4.441406 C 18.070312 5.097656 18.355469 5.816406 18.597656 6.585938 C 17.203125 6.863281 15.6875 7.023438 14.121094 7.050781 Z M 22.855469 5.183594 C 21.898438 5.671875 20.777344 6.074219 19.539062 6.378906 C 18.871094 4.210938 17.886719 2.464844 16.703125 1.355469 C 19.125 1.984375 21.257812 3.34375 22.855469 5.183594 Z M 23.464844 5.9375 C 24.886719 7.863281 25.757812 10.21875 25.855469 12.769531 L 20.5 12.769531 C 20.464844 10.792969 20.21875 8.941406 19.796875 7.292969 C 21.167969 6.953125 22.410156 6.496094 23.464844 5.9375 Z M 16.703125 25.132812 C 17.464844 24.417969 18.144531 23.4375 18.710938 22.25 L 18.308594 20.730469 C 18.136719 21.191406 17.949219 21.632812 17.742188 22.046875 C 16.738281 24.054688 15.464844 25.25 14.121094 25.476562 L 14.121094 19.46875 C 15.492188 19.492188 16.824219 19.617188 18.070312 19.832031 L 17.804688 18.828125 C 16.628906 18.644531 15.390625 18.539062 14.121094 18.515625 L 14.121094 13.71875 L 19.554688 13.71875 C 19.539062 14.453125 19.496094 15.175781 19.417969 15.882812 L 20.316406 16.371094 C 20.421875 15.515625 20.484375 14.632812 20.5 13.71875 L 25.855469 13.71875 C 25.789062 15.5 25.339844 17.1875 24.59375 18.699219 L 25.425781 19.148438 C 26.3125 17.371094 26.816406 15.367188 26.816406 13.242188 C 26.816406 5.949219 20.910156 0.015625 13.648438 0.015625 C 6.390625 0.015625 0.484375 5.949219 0.484375 13.242188 C 0.484375 20.539062 6.390625 26.472656 13.648438 26.472656 C 15.738281 26.472656 17.710938 25.980469 19.46875 25.105469 L 19.21875 24.167969 C 18.425781 24.578125 17.582031 24.90625 16.703125 25.132812 " fill-opacity="1" fill-rule="nonzero"/></g><g clip-path="url(#e3d40e18ef)"><path fill="#fd408e" d="M 26.472656 29.015625 L 23.425781 25.128906 L 21.402344 28.09375 L 18.34375 16.558594 L 28.789062 22.242188 L 25.457031 23.535156 L 28.496094 27.414062 L 26.472656 29.015625 " fill-opacity="1" fill-rule="nonzero"/></g></svg>